<svg width="30" height="30" viewBox="0 0 30 30" fill="none" xmlns="http://www.w3.org/2000/svg">
<g clip-path="url(#clip0_534_668)">
<path d="M29.6435 15.2807C29.6435 14.0516 29.5438 13.1547 29.3279 12.2246H15.293V17.7721H23.5312C23.3651 19.1507 22.4682 21.2269 20.4751 22.622L20.4471 22.8077L24.8847 26.2455L25.1922 26.2762C28.0157 23.6685 29.6435 19.8317 29.6435 15.2807Z" fill="#4285F4"/>
<path d="M15.2915 29.897C19.3275 29.897 22.7158 28.5682 25.1907 26.2762L20.4736 22.622C19.2113 23.5023 17.5171 24.1169 15.2915 24.1169C11.3385 24.1169 7.98342 21.5093 6.78742 17.905L6.61212 17.9199L1.99784 21.4909L1.9375 21.6587C4.39567 26.5418 9.44494 29.897 15.2915 29.897Z" fill="#34A853"/>
<path d="M6.78814 17.9049C6.47257 16.9748 6.28993 15.9782 6.28993 14.9484C6.28993 13.9186 6.47257 12.9221 6.77154 11.992L6.76318 11.7939L2.09108 8.16547L1.93822 8.23818C0.925086 10.2646 0.34375 12.5401 0.34375 14.9484C0.34375 17.3568 0.925086 19.6322 1.93822 21.6586L6.78814 17.9049Z" fill="#FBBC05"/>
<path d="M15.2915 5.78004C18.0985 5.78004 19.9919 6.99252 21.0715 8.00576L25.2903 3.8866C22.6993 1.47824 19.3275 0 15.2915 0C9.44494 0 4.39567 3.35508 1.9375 8.2382L6.77082 11.992C7.98342 8.38775 11.3385 5.78004 15.2915 5.78004Z" fill="#EB4335"/>
</g>
<defs>
<clipPath id="clip0_534_668">
<rect width="30" height="30" fill="white"/>
</clipPath>
</defs>
</svg>
