<svg width="34" height="40" viewBox="0 0 34 40" fill="none" xmlns="http://www.w3.org/2000/svg">
<path fill-rule="evenodd" clip-rule="evenodd" d="M20.606 6.66666C20.606 2.98476 23.6044 0 27.303 0C31.0016 0 34 2.98476 34 6.66666C34 10.3486 31.0016 13.3333 27.303 13.3333C25.4354 13.3333 23.7476 12.5719 22.5342 11.3469L13.2634 17.659C13.349 18.085 13.394 18.525 13.394 18.9744C13.394 19.8644 13.218 20.7152 12.8992 21.4928L23.0646 28.1716C24.2184 27.2322 25.6946 26.6666 27.303 26.6666C31.0016 26.6666 34 29.6514 34 33.3334C34 37.0152 31.0016 40 27.303 40C23.6044 40 20.606 37.0152 20.606 33.3334C20.606 32.369 20.8124 31.451 21.1834 30.6222L11.1001 23.9974C9.92392 25.0196 8.3832 25.641 6.69696 25.641C2.99834 25.641 0 22.6562 0 18.9744C0 15.2925 2.99834 12.3077 6.69696 12.3077C8.8238 12.3077 10.7171 13.2945 11.9429 14.8304L20.9278 8.71284C20.7188 8.06718 20.606 7.3792 20.606 6.66666Z" fill="black"/>
</svg>
