<svg width="62" height="104" viewBox="0 0 62 104" fill="none" xmlns="http://www.w3.org/2000/svg">
<path d="M37.2755 0.365753C33.9239 1.23919 31.1817 4.022 30.288 7.41419C28.927 12.6345 32.1567 18.0173 37.438 19.3986C42.5567 20.7392 47.9802 17.5298 49.3208 12.4111C51.2302 5.05794 44.6286 -1.54362 37.2755 0.365753Z" fill="#1E5C97"/>
<path d="M30.1469 22.3438C25.1094 23.1156 21.2094 28.3563 19.3406 36.8469C18.2641 41.6406 18.1016 43.8953 18.1016 53.0156V61.4453L18.65 62.4C19.2797 63.4563 20.5188 64.1875 21.6766 64.1875C22.6922 64.1875 24.1141 63.3953 24.6016 62.5625C24.9875 61.8922 25.0078 61.5063 25.0078 53.9297C25.0281 45.825 25.2313 42.8188 26.0438 38.8984C26.3891 37.2531 27.4453 33.7594 27.75 33.3125C27.8719 33.1094 27.9531 35.3031 27.9531 40.0563C27.9531 46.8609 27.9734 47.125 28.3391 47.125C28.5422 47.125 29.6188 47.3484 30.7156 47.6328C33.4172 48.3234 37.4797 50.3547 39.6734 52.1016C40.9734 53.1172 41.5016 53.4219 42.0094 53.4219C42.9844 53.4219 46.6 52.9141 49.3422 52.4062L51.7188 51.9594L51.7391 42.4734V33.0078L52.1656 33.9219C52.7344 35.2016 53.6688 38.9391 54.0344 41.4578C54.5422 44.9719 54.8063 50.3547 54.725 56.3469L54.6641 62.0547L55.1516 62.7453C56.5938 64.7562 59.7422 64.5734 61.0016 62.4L61.55 61.4656L61.6313 54.8234C61.7328 47.7141 61.5297 43.8953 60.8391 39.6297C59.3563 30.3266 56.1063 24.7812 50.9469 22.7094C49.8094 22.2625 49.6672 22.2625 40.5469 22.2219C35.4688 22.2016 30.7766 22.2625 30.1469 22.3438Z" fill="#1E5C97"/>
<path d="M25.8404 49.7657C25.7185 51.3907 25.8404 58.4188 26.0435 60.0641C26.1451 60.8969 26.1654 60.9172 27.3029 61.2422C32.0357 62.6032 35.4482 67.1532 35.4685 72.1297C35.4685 73.6532 34.7982 76.1719 34.0467 77.4922C30.3498 83.9719 21.5748 85.2313 16.3748 80.0313C14.1404 77.7969 13.0435 75.2172 13.0435 72.1094C13.0232 68.5751 14.3842 65.65 17.1467 63.3547C17.7357 62.8266 17.756 62.786 17.5529 62.0344C17.4107 61.5876 17.2889 61.2016 17.2685 61.161C17.2279 61.1204 16.7404 61.425 16.192 61.8313C14.8717 62.8063 13.7545 64.1672 12.7795 65.975L11.9873 67.4172L8.55448 63.9844L5.14198 60.5719L6.11698 59.1704C7.35604 57.4438 9.54979 55.2297 11.3576 53.9501L12.7592 52.9547L14.9935 55.1688L17.2279 57.3829L17.106 56.5704C17.0451 56.1235 16.9842 54.2751 16.9842 52.4672V49.1766L16.2326 49.4407C9.69198 51.7563 4.08573 57.2813 1.77011 63.7204C-0.0580193 68.7376 -0.159582 74.6282 1.46542 79.5235C3.43573 85.475 7.82323 90.5532 13.4498 93.4172C16.8623 95.1641 20.3154 95.9563 24.2967 95.9563C32.4014 95.9157 39.6123 92.0563 44.1217 85.2922C52.8357 72.2313 46.7217 54.336 31.8529 49.3594C30.3498 48.8516 27.0389 48.1407 26.2264 48.1407C26.0639 48.1407 25.942 48.6891 25.8404 49.7657ZM36.9514 53.8688C38.4951 54.9047 41.3795 57.7891 42.456 59.3735L43.2685 60.5516L39.9373 63.8829C38.0889 65.7313 36.5451 67.2344 36.4842 67.2344C36.4232 67.2344 36.017 66.5641 35.5701 65.7516C34.4732 63.7813 32.3404 61.6688 30.4514 60.6735C29.6389 60.2469 28.9685 59.8407 28.9685 59.7594C28.9685 59.6172 35.4889 53.0157 35.631 53.0157C35.6717 53.0157 36.2607 53.4016 36.9514 53.8688ZM13.0232 78.5485C14.2217 80.6204 16.0904 82.4282 18.081 83.4844C18.8123 83.8704 19.4217 84.236 19.4217 84.2969C19.4217 84.3579 17.9185 85.9016 16.0701 87.75L12.7389 91.0813L11.5607 90.2891C10.0373 89.2532 6.94979 86.1657 5.91386 84.6422L5.12167 83.4641L8.45292 80.1329C10.3014 78.2844 11.8451 76.7813 11.906 76.7813C11.967 76.8016 12.4545 77.5938 13.0232 78.5485ZM39.917 80.1125L43.2685 83.4641L42.4764 84.6422C41.4404 86.2266 39.1451 88.5829 37.3576 89.9032C36.5451 90.5125 35.8139 91 35.7326 91C35.5092 91 28.867 84.3375 28.9685 84.236C29.0295 84.1954 29.6592 83.85 30.3904 83.4641C32.1982 82.5297 34.7576 79.9704 35.6717 78.1625C36.0576 77.3907 36.4232 76.7813 36.4842 76.7813C36.5451 76.7813 38.0889 78.2844 39.917 80.1125Z" fill="#1E5C97"/>
<path d="M49.1793 53.7673C47.8387 54.011 45.8277 54.3157 44.6902 54.4579L42.6387 54.7017L43.9184 56.286C47.8184 61.1204 49.7277 67.0313 49.4027 73.2267C49.3418 74.5673 49.2402 75.9079 49.159 76.1923L49.0371 76.7407L50.2965 76.4767C50.9668 76.3345 51.5762 76.172 51.6371 76.1313C51.6777 76.0704 51.698 70.9313 51.6777 64.6751L51.6168 53.3204L49.1793 53.7673Z" fill="#1E5C97"/>
<path d="M27.9531 69.5703V76.1719L28.4203 76.2734C29.9438 76.6188 31.9141 76.9844 32.3203 76.9844C33.2547 76.9844 34.0875 74.6688 34.0875 72.0891C34.0875 68.6359 32.625 65.8328 29.7609 63.8422C29.0703 63.375 28.3594 62.9688 28.2172 62.9688C28.0141 62.9688 27.9531 64.2281 27.9531 69.5703Z" fill="#1E5C97"/>
<path d="M27.9531 79.4219V81.25L28.9281 80.7625C29.8828 80.275 31.8125 78.7109 31.8125 78.4062C31.8125 78.2844 28.6438 77.5937 28.075 77.5937C28.0141 77.5937 27.9531 78.4266 27.9531 79.4219Z" fill="#1E5C97"/>
<path d="M49.9098 77.8782L48.8129 78.1017L48.2441 79.8282C47.0051 83.5657 44.9535 86.9173 42.0895 89.8829L40.7285 91.3048L40.7895 95.5704C40.891 100.324 40.9723 100.709 42.2926 102.172C44.791 104.934 49.1582 104.427 50.9863 101.156L51.616 100.039L51.677 88.8063C51.7379 78.1423 51.7176 77.5938 51.3723 77.6142C51.1691 77.6345 50.5191 77.736 49.9098 77.8782Z" fill="#1E5C97"/>
<path d="M37.8031 93.3563C34.9391 95.1438 32.6437 96.0376 28.4797 96.972L27.8906 97.1142L27.9922 98.597C28.0734 99.7751 28.2156 100.344 28.7031 101.177C30.4906 104.406 34.8781 104.934 37.3359 102.213C38.575 100.852 38.7375 100.1 38.6766 96.2407L38.6156 92.8485L37.8031 93.3563Z" fill="#1E5C97"/>
</svg>
