<svg width="83" height="86" viewBox="0 0 83 86" fill="none" xmlns="http://www.w3.org/2000/svg">
<path d="M80.5978 12.5407C80.1509 12.5407 79.6998 12.3777 79.3315 12.0467L72.1161 5.57932C71.6594 5.16824 70.7234 5.10931 70.2216 5.45704L62.7687 10.6523C60.8419 11.9985 58.0071 11.8881 56.1773 10.4046L50.1607 5.53413C49.6589 5.12464 48.6035 5.07646 48.0709 5.44045L40.3242 10.6992C38.4424 11.9758 35.6133 11.9576 33.7426 10.6555L26.2912 5.45719C25.729 5.06729 24.5978 5.0733 24.041 5.4692L16.7652 10.6253C14.851 11.9865 12.0121 11.9064 10.1681 10.4409L1.86359 3.84213C0.983818 3.14258 0.799667 1.80872 1.44899 0.864454C2.0983 -0.0828157 3.33919 -0.282193 4.2191 0.41878L12.5237 7.01618C13.0212 7.41193 14.0627 7.44526 14.5827 7.07353L21.86 1.91599C23.732 0.586562 26.5667 0.571394 28.4471 1.88582L35.9 7.08411C36.4722 7.48002 37.6358 7.48902 38.2119 7.09928L45.9573 1.84047C47.8897 0.532369 50.7217 0.657652 52.5472 2.13354L58.5623 7.00401C59.0598 7.40893 60.0929 7.44684 60.6157 7.08111L68.0671 1.88724C70.0263 0.517048 72.8611 0.699674 74.6557 2.31032L81.8696 8.77754C82.7101 9.53001 82.8224 10.8715 82.124 11.775C81.7277 12.2794 81.1641 12.5407 80.5978 12.5407Z" fill="#1E5C97"/>
<path d="M61.6382 38.4013C59.5694 40.5998 56.2195 40.5783 54.1683 38.348C52.123 36.1242 52.153 32.5361 54.2218 30.3375C56.2857 28.1442 59.6248 28.152 61.6701 30.3758C63.7224 32.607 63.7021 36.208 61.6382 38.4013Z" fill="#1E5C97"/>
<path d="M11.025 38.6291L31.4096 44.4578L49.2955 39.8641C50.1545 39.6034 51.0777 39.6081 51.9628 39.874L75.4771 46.7399C77.0528 47.1983 77.9965 48.9549 77.5651 50.6561C77.1556 52.3702 75.5203 53.3708 73.9377 52.9199L57.1677 49.296L36.1447 53.2744C35.2688 53.5426 34.3446 53.5368 33.4824 53.2591L9.05537 46.2775C7.09571 45.6962 5.94157 43.5131 6.4707 41.3936C7.02247 39.2775 9.06142 38.0413 11.025 38.6291Z" fill="#1E5C97"/>
<path d="M80.2305 81.5693H3.36644" stroke="#1E5C97" stroke-width="5" stroke-linecap="round"/>
</svg>
