<svg width="102" height="76" viewBox="0 0 102 76" fill="none" xmlns="http://www.w3.org/2000/svg">
<path d="M36.984 1.05161C33.1652 1.49849 30.2605 2.59536 25.6902 5.31723C23.8012 6.45473 21.3027 7.8563 20.1652 8.42505L18.0527 9.46099L18.2152 10.375C18.3168 10.8829 18.3777 14.7219 18.398 18.9063C18.398 25.9547 18.4387 26.5844 18.784 27.2344C20.2059 29.875 21.6887 30.8704 28.6965 33.8157C32.1699 35.2782 34.0793 35.8469 36.9027 36.2125L38.7715 36.4563L41.9809 34.5875C46.7137 31.8657 48.7043 31.1141 51.0199 31.0938C51.8934 31.0938 52.0559 31.0125 53.3355 29.7735C54.9402 28.2094 57.784 26.686 60.1402 26.1172C60.973 25.9344 61.7246 25.6907 61.8262 25.6094C61.9074 25.5485 61.8668 21.8719 61.7246 17.4641L61.4809 9.46099L59.4496 8.28286C58.3121 7.63286 56.0777 6.29223 54.473 5.29692C51.1824 3.24536 49.3543 2.43286 46.5715 1.72192C43.2402 0.868797 40.2949 0.665672 36.984 1.05161ZM31.0934 12.4063C31.2965 12.5079 31.6215 13.0157 31.8043 13.5032C32.5965 15.5954 31.0324 17.4032 29.6715 15.961C28.9809 15.2094 28.859 13.5235 29.4684 12.7516C29.9152 12.1829 30.4434 12.061 31.0934 12.4063ZM50.0855 12.325C51.1621 12.7516 51.284 15.1282 50.2887 16.1235C49.2121 17.2204 47.709 15.7375 48.034 13.9297C48.2777 12.6297 49.1309 11.9594 50.0855 12.325ZM42.0215 17.0172C43.0574 17.85 43.7684 19.3125 43.7887 20.5922C43.7887 21.3235 43.6871 21.6485 43.4434 21.8313C43.159 21.9938 43.0371 21.9735 42.8137 21.6688C42.6715 21.4657 42.3668 21.3235 42.1637 21.3641C41.8184 21.4454 40.823 22.5625 40.234 23.5375C40.0512 23.8422 39.9902 23.8422 39.6246 23.375C39.4012 23.0907 38.934 22.5219 38.5887 22.0954C37.959 21.3235 37.309 21.1204 37.1059 21.6485C36.923 22.136 36.3746 21.9938 36.1512 21.3844C35.6637 20.186 36.8621 17.6469 38.3043 16.7532C39.4418 16.0422 40.9449 16.1438 42.0215 17.0172ZM41.2293 26.9094C42.448 28.1282 42.4684 28.4125 41.4121 29.0625C40.2949 29.7329 39.1168 29.5704 38.0402 28.5954L37.5934 28.1688L38.7512 26.9907C39.4012 26.3407 39.9699 25.8125 40.0309 25.8125C40.0918 25.8125 40.6402 26.3 41.2293 26.9094Z" fill="#1E5C97"/>
<path d="M11.33 9.76558C9.46124 11.2484 9.86749 13.8281 12.2644 15.5343C13.1581 16.164 15.0066 17.0781 16.0222 17.3828L16.4691 17.5046L16.4284 13.9906L16.3675 10.4765L15.3519 9.98901C14.7425 9.68433 13.8487 9.46089 13.1175 9.39995C12.1019 9.33901 11.8175 9.39995 11.33 9.76558Z" fill="#1E5C97"/>
<path d="M63.4917 10.1514C63.1667 10.2327 62.9027 10.3749 62.923 10.4967C63.0855 11.4717 63.5933 15.2499 63.7152 16.4077L63.837 17.8499L64.7511 17.4639C68.2652 15.9608 69.9308 13.3202 68.6714 11.2483C68.0417 10.2124 65.5636 9.68423 63.4917 10.1514Z" fill="#1E5C97"/>
<path d="M63.4312 23.1311L63.4922 25.8327L64.2031 26.0155C64.6094 26.1171 65.4422 26.5233 66.0922 26.9093C66.7219 27.2952 67.25 27.5593 67.25 27.4983C67.25 27.1733 65.1172 23.0702 64.325 21.8515L63.3906 20.4296L63.4312 23.1311Z" fill="#1E5C97"/>
<path d="M15.535 25.9139C13.4835 31.0936 12.285 35.5826 11.5944 40.7826C11.2897 42.9358 11.4116 43.8701 12.0616 44.4389C12.7116 45.0279 14.6413 46.1451 16.8147 47.2014C17.9725 47.7701 18.9679 48.4201 19.4554 48.9483C22.3397 51.9545 33.3288 54.5139 42.0429 54.1889C48.4819 53.9451 51.6913 52.7467 55.185 49.2529C56.81 47.6076 57.4804 46.4092 57.9882 44.1139C58.4147 42.2451 58.8413 41.4123 60.0397 40.0717C60.9538 39.0561 60.9944 38.9545 60.9132 38.0201C60.71 35.8873 58.6788 33.8358 55.6116 32.6373C51.8944 31.1748 48.1163 31.967 44.3788 35.0139C41.9007 37.0248 40.946 37.5529 35.6647 39.9295C32.9835 41.1279 29.0632 42.9764 26.9507 44.0326C24.8585 45.0889 23.0913 45.9014 23.0304 45.8608C22.8475 45.6576 27.4382 42.5701 30.0382 41.1279L31.9475 40.0717L31.3382 39.7467C30.6475 39.3811 29.9569 38.5889 29.5913 37.6951C29.4491 37.3498 28.86 36.5779 28.2913 35.9483C27.4585 35.0545 26.971 34.7092 25.9757 34.3436C23.5788 33.4904 20.8366 31.9467 19.435 30.667C17.6069 28.9811 16.8554 27.4576 16.6929 25.0404L16.571 23.2733L15.535 25.9139Z" fill="#1E5C97"/>
<path d="M61.1568 27.0515C59.613 27.3359 56.9115 28.7984 55.6927 30.0171C55.1037 30.6265 54.6771 31.1953 54.7787 31.2765C54.8802 31.3781 55.4084 31.5609 55.9568 31.6828C58.5365 32.3125 60.8115 34.0796 61.5427 36.0906C62.1724 37.7359 62.0912 38.914 61.2583 41.0062C60.8521 41.9812 60.263 43.7078 59.938 44.8656C59.3287 46.9375 58.7396 48.3187 57.7646 49.8421L57.2771 50.614L58.2521 50.4921C61.5833 50.0453 69.5255 48.6437 71.4552 48.1562C73.8724 47.5468 75.9646 46.714 76.4724 46.1453C76.7568 45.8406 76.7162 45.6578 76.1271 44.2968C75.1927 42.1843 74.2584 40.7828 72.4708 38.8734C70.724 37.0046 70.6021 36.8015 69.5255 33.9171C68.388 30.8906 68.0427 30.2812 66.6615 29.0218C64.9349 27.4171 62.9849 26.7265 61.1568 27.0515Z" fill="#1E5C97"/>
<path d="M84.7801 34.5061C84.4348 35.5624 83.602 37.0249 83.1551 37.3905C82.8707 37.6139 82.4035 37.7967 82.1191 37.7967H81.6113L81.7332 40.1733C81.8957 43.078 82.4035 45.1092 83.4598 47.1608L84.2723 48.7249L83.9676 50.5124C83.8051 51.5077 83.3176 53.3764 82.8504 54.6561C81.8551 57.5202 81.7738 57.9467 82.0582 58.4952C82.4848 59.267 83.4598 59.592 85.8363 59.7545C90.3254 60.0186 93.8598 59.4499 94.4488 58.353C94.5707 58.1092 94.6723 57.5202 94.6723 56.992C94.6723 56.4842 94.9566 55.0014 95.2816 53.7014C96.4801 49.0905 96.2566 48.217 92.2348 42.1639C90.4473 39.4624 89.3098 37.1061 88.9848 35.4405L88.741 34.2014L87.827 34.5061C87.0145 34.7905 86.8113 34.7702 85.8973 34.4858C84.9629 34.2014 84.8816 34.2014 84.7801 34.5061Z" fill="#1E5C97"/>
<path d="M7.8364 38.2233C5.52077 38.9952 3.87546 39.8889 2.65671 40.9858C-0.146417 43.5045 0.239521 47.0998 3.63171 50.4514C6.08952 52.8889 9.01452 54.6561 13.5645 56.403C14.8848 56.9108 17.2411 58.0483 18.8051 58.9217C24.7364 62.2327 26.6864 62.9842 31.0739 63.6139C33.5723 63.9592 38.5083 63.7561 40.3973 63.2077C42.2661 62.6592 44.1755 61.8061 45.4551 60.9327C46.5317 60.1811 48.1567 58.7389 48.1567 58.5358C48.1567 58.4545 47.4458 58.4748 46.5926 58.5967C45.7192 58.6983 42.0426 58.7998 38.4067 58.7998C32.8817 58.8202 31.5005 58.7592 29.9364 58.4545C25.7723 57.6623 23.477 56.7686 18.9067 54.1483C17.627 53.417 15.9411 52.6248 15.1489 52.4014C10.7005 51.1014 8.77077 50.1467 6.88171 48.2983C4.76921 46.2061 4.22077 43.9514 5.35827 42.0217C5.94733 40.9858 7.53171 39.6452 8.9739 38.8936C9.50202 38.6295 9.96921 38.2436 10.0301 37.9998C10.1723 37.4717 10.0301 37.4717 7.8364 38.2233Z" fill="#1E5C97"/>
<path d="M63.6148 53.0718C63.2695 53.9656 61.9898 54.8593 61.0758 54.8593C60.6492 54.8593 60.5477 54.9609 60.5477 55.3671C60.5477 56.7484 59.5117 57.9468 57.9883 58.3734C57.1961 58.5765 57.1352 58.6375 57.2367 59.1453C57.3789 59.8359 56.8914 60.75 56.018 61.4203C55.368 61.9078 55.307 62.05 55.2258 63.2687C55.1648 64.2437 55.0227 64.7718 54.6977 65.2187L54.2305 65.8281L56.2211 66.7625C58.5977 67.8593 62.3555 69.3625 63.493 69.6671C64.9148 70.0328 69.7086 70.3578 71.9227 70.2359C75.5789 70.0125 77.8133 69.2 78.2195 67.9406C78.443 67.2906 78.4023 67.0468 77.9148 65.8078C76.7977 62.964 75.2742 61.1765 72.918 59.9171C71.9633 59.4093 70.907 58.5156 68.9773 56.5656C66.7023 54.2703 64.6102 52.625 63.9398 52.625C63.8586 52.625 63.7164 52.8281 63.6148 53.0718Z" fill="#1E5C97"/>
<path d="M100.156 57.9062C100.156 58.6984 99.2422 60.4452 98.3281 61.4406C97.2516 62.5984 96.4594 62.8624 92.4375 63.3906C89.025 63.8374 88.05 64.0406 86.9531 64.6093C85.5312 65.3406 84.9625 66.2952 84.6172 68.5296C84.3734 70.0937 82.2609 71.4546 78.95 72.1656C77.65 72.4296 75.8422 72.5921 72.9375 72.6937L68.7734 72.8359L70.7234 73.5062C77.1422 75.6999 84.9828 75.639 88.1312 73.3437C89.1875 72.5718 89.5328 71.9015 89.7969 70.0937C90.0203 68.5093 90.325 67.7781 91.0562 67.1077C91.7875 66.4171 93.5344 65.7062 95.9516 65.0968C99.6687 64.1827 101.152 62.9031 101.172 60.6281C101.172 59.5515 100.887 58.4952 100.42 57.8046C100.156 57.4187 100.156 57.4187 100.156 57.9062Z" fill="#1E5C97"/>
</svg>
