<svg width="103" height="93" viewBox="0 0 103 93" fill="none" xmlns="http://www.w3.org/2000/svg">
<path d="M49.5488 6.26829C45.9251 3.16617 38.3168 -0.556705 26.4365 6.96054C26.4365 6.96054 35.283 6.98654 36.674 13.7547" stroke="#1E5C97" stroke-width="4" stroke-linecap="round" stroke-linejoin="round"/>
<path d="M48.2196 71.9947C49.0937 71.2328 49.7942 70.2922 50.2738 69.2365C50.7534 68.1808 51.0011 67.0345 51 65.875C51 68.0299 51.856 70.0965 53.3798 71.6202C54.9035 73.144 56.9701 74 59.125 74C61.2799 74 63.3465 73.144 64.8702 71.6202C66.394 70.0965 67.25 68.0299 67.25 65.875C67.25 68.0299 68.106 70.0965 69.6298 71.6202C71.1535 73.144 73.2201 74 75.375 74C77.5299 74 79.5965 73.144 81.1202 71.6202C82.644 70.0965 83.5 68.0299 83.5 65.875C83.5 68.0299 84.356 70.0965 85.8798 71.6202C87.4035 73.144 89.4701 74 91.625 74C93.7799 74 95.8465 73.144 97.3702 71.6202C98.894 70.0965 99.75 68.0299 99.75 65.875" stroke="#1E5C97" stroke-width="4" stroke-linecap="round" stroke-linejoin="round"/>
<path d="M2.25078 65.875C2.25078 68.0299 3.10681 70.0965 4.63054 71.6202C6.15427 73.144 8.2209 74 10.3758 74C12.5307 74 14.5973 73.144 16.121 71.6202C17.6448 70.0965 18.5008 68.0299 18.5008 65.875C18.5004 67.3567 18.9051 68.8104 19.6713 70.0786C20.4375 71.3469 21.5359 72.3815 22.8477 73.0705" stroke="#1E5C97" stroke-width="4" stroke-linecap="round" stroke-linejoin="round"/>
<path d="M78.2617 42.2475C75.8047 45.7917 71.1426 48.4404 62.3286 46.661C62.3286 46.661 69.3616 43.9522 69.5712 38.1704" stroke="#1E5C97" stroke-width="4" stroke-linecap="round" stroke-linejoin="round"/>
<path d="M59.5164 36.1114C76.5902 34.5124 87.325 51.5879 90.3507 52.2704C93.8965 53.0683 94.3044 47.9463 93.526 44.7954C93.0575 42.9279 92.8637 41.0021 92.9507 39.0787C92.9507 39.0787 110.714 29.6667 93.4139 13.8522C76.1141 -1.96235 39.8522 0.29803 27.9524 26.6718C16.0525 53.0455 26.6524 68.8389 26.6524 68.8389C26.6524 68.8389 17.1672 77.8755 21.8619 90.1069C21.8619 90.1069 31.5696 71.8078 51.6514 78.5694C51.6514 78.5694 51.2809 70.2917 35.5232 67.4869C35.5232 67.4869 28.1604 50.4244 48.2242 39.7417" stroke="#1E5C97" stroke-width="4" stroke-linecap="round" stroke-linejoin="round"/>
<path d="M85.2852 34.1987C83.939 34.1987 82.8477 33.1074 82.8477 31.7612C82.8477 30.415 83.939 29.3237 85.2852 29.3237C86.6314 29.3237 87.7227 30.415 87.7227 31.7612C87.7227 33.1074 86.6314 34.1987 85.2852 34.1987Z" fill="#1E5C97"/>
<path d="M57.1163 29.7998C57.1163 29.7998 66.889 46.2513 47.0039 51.4562C47.0039 51.4562 56.1185 41.6331 44.4608 35.6547" stroke="#1E5C97" stroke-width="4" stroke-linecap="round" stroke-linejoin="round"/>
<path d="M81.5957 13.4248C76.1806 10.4526 70.0367 9.06865 63.8702 9.43213" stroke="#1E5C97" stroke-width="4" stroke-linecap="round" stroke-linejoin="round"/>
</svg>
