<svg width="94" height="76" viewBox="0 0 94 76" fill="none" xmlns="http://www.w3.org/2000/svg">
<path d="M29.6483 0.457958C39.4389 1.4939 49.0874 5.37358 57.2327 11.5486C60.0967 13.722 65.2358 18.9017 67.3889 21.8064C73.9702 30.6017 77.4842 40.0267 78.3983 51.2595C78.5405 52.8033 78.5405 52.8439 79.0686 52.8439C80.0842 52.8439 82.9889 52.0314 84.4717 51.3408C86.3202 50.508 88.1686 49.2486 89.7124 47.8267C90.9514 46.6892 91.3577 46.5673 92.2717 47.0345C93.3483 47.583 93.7139 49.0658 93.0436 50.1017C92.4342 51.0158 89.2655 53.2298 86.7264 54.4689C81.2014 57.2111 75.6561 57.6173 69.7452 55.7689C67.6733 55.1189 64.6061 53.5751 62.9811 52.3564L61.7827 51.4423L60.7467 52.2142C54.6936 56.6423 47.2389 58.0236 40.6171 55.9517C38.4639 55.2814 35.4577 53.697 33.7921 52.3564L32.4717 51.2798L31.0296 52.3361C29.1811 53.697 26.9264 54.8548 24.3264 55.7689C22.0311 56.6017 21.7467 56.6423 18.3546 56.8251C12.3827 57.1501 5.98424 54.8345 1.88112 50.8533C0.479553 49.4923 0.3983 48.5173 1.57643 47.197C2.26705 46.4455 2.93736 46.608 4.58268 47.9892C6.61393 49.6955 7.52799 50.2845 9.47799 51.2189C12.3827 52.6205 16.0796 53.2705 19.0655 52.9455C20.6905 52.783 20.4671 53.1892 21.828 47.8673C23.6155 40.8595 24.2249 37.122 24.4077 31.922C24.5499 27.6767 24.2655 24.4267 23.453 21.258C22.5592 17.7439 21.7264 15.7126 19.1671 10.6751C17.8671 8.09546 16.5467 5.39389 16.2421 4.68296C15.9577 3.97202 15.6124 3.17983 15.4905 2.91577C15.1858 2.32671 15.4702 1.51421 16.1405 1.02671C16.4249 0.823582 17.278 0.559521 18.0702 0.437645C19.7561 0.214207 27.3327 0.214207 29.6483 0.457958ZM22.1124 4.31733L20.4671 4.56108L22.478 8.54234C24.9561 13.4173 26.0733 15.9767 26.8858 18.6173C28.6733 24.3251 28.9983 31.6376 27.7999 39.2345C27.4139 41.7126 26.2358 47.1564 25.6061 49.4314C25.2405 50.7111 25.1796 51.2189 25.3624 51.2189C25.8905 51.2189 28.9577 49.1267 30.4202 47.7658C32.4108 45.897 32.6952 45.897 34.8686 47.847C38.403 51.0361 43.8264 52.9048 48.5186 52.5392C52.9264 52.1939 56.9483 50.447 60.1374 47.5017C60.8686 46.8314 61.5796 46.3439 61.8233 46.3439C62.5342 46.3439 63.428 46.9126 63.7733 47.5626C64.2202 48.4158 66.4952 50.0814 68.6483 51.1376C70.2936 51.9298 72.6092 52.6205 74.7014 52.9251L75.4936 53.0267L75.3514 51.3611C73.9296 34.0548 64.5249 19.3283 49.3108 10.6142C41.2264 5.98296 29.5671 3.28139 22.1124 4.31733Z" fill="#1E5C97"/>
<path d="M92.4542 66.2501C93.348 66.7985 93.6527 67.8954 93.1652 68.8704C92.3324 70.5767 86.6449 74.0095 82.9277 75.0657C76.0417 77.036 68.2011 75.6548 62.9605 71.572L61.9652 70.7798L60.7261 71.6939C59.0199 72.9532 55.7902 74.4767 53.5761 75.0657C46.1011 77.0564 38.5652 75.6954 33.3246 71.4501L32.2683 70.5767L30.1964 71.9579C23.4324 76.4267 15.2058 77.2189 7.97456 74.0907C5.55737 73.0548 4.25737 72.2017 2.44956 70.4954C0.885498 69.0126 0.804245 68.8907 0.804245 68.0579C0.804245 66.5751 1.79956 65.6204 2.998 65.9251C3.26206 65.986 4.11519 66.5954 4.88706 67.286C7.30424 69.4189 10.2089 70.922 13.4183 71.6532C15.8558 72.222 19.5121 72.1407 22.0918 71.4704C24.773 70.7595 27.6371 69.236 29.8308 67.347C32.1871 65.3157 32.6136 65.3157 34.8683 67.347C38.4027 70.536 43.8261 72.4048 48.5183 72.0392C52.9261 71.6939 56.948 69.947 60.1371 67.0017C61.8433 65.4376 62.1886 65.4376 64.0574 67.1032C71.4308 73.7454 82.3589 73.7048 89.5902 67.0017C90.9714 65.722 91.4183 65.6001 92.4542 66.2501Z" fill="#1E5C97"/>
</svg>
