<svg width="104" height="86" viewBox="0 0 104 86" fill="none" xmlns="http://www.w3.org/2000/svg">
<path d="M82.0471 0.150805C80.7089 0.75356 80.5376 2.66946 81.7474 3.49825C82.0686 3.71352 82.2827 3.76733 82.8073 3.76733C83.364 3.76733 83.5246 3.72428 83.91 3.43367C84.7237 2.84167 84.9378 1.81914 84.4239 0.936539C83.9528 0.129279 82.8822 -0.225916 82.0471 0.150805Z" fill="#1E5C97"/>
<path d="M32.0597 6.42561C30.9676 8.58907 29.8863 10.505 27.3704 14.692C23.0344 21.925 22.1244 23.6687 20.208 28.2539C17.7242 34.2169 17.478 39.0605 19.373 44.6467C19.5443 45.1526 19.7156 45.6047 19.7584 45.6477C19.9083 45.7984 21.7283 46.2828 23.0452 46.5196C24.18 46.7241 24.7153 46.7564 27.2633 46.7564C28.8693 46.7456 30.154 46.7671 30.1326 46.7886C30.0576 46.864 27.6916 47.5636 26.7495 47.7896C26.2463 47.9081 25.6467 48.0587 25.4112 48.1126C22.6062 48.8014 19.4372 49.1889 15.9898 49.2642C13.0243 49.3288 10.3263 49.1351 9.39491 48.8122C9.14867 48.7261 8.81678 48.6615 8.65619 48.6723C8.48489 48.683 8.29218 48.64 8.20653 48.5754C8.13159 48.5 7.74617 48.3386 7.36075 48.1987C6.27944 47.8004 5.28378 47.1869 4.49153 46.4335C3.76351 45.7446 3.2068 45.4217 2.75714 45.4217C1.86854 45.4217 0.615928 46.2182 0.198391 47.047C-0.101379 47.6282 -0.0692611 48.0587 0.348276 49.2212C1.25829 51.7614 2.35031 53.5158 4.04187 55.1734C8.02453 59.0698 14.4053 60.7058 22.9488 60.0062C27.9164 59.5972 31.5672 58.8545 34.7255 57.5844C36.5669 56.8525 38.6867 55.5501 39.8751 54.4307C40.8708 53.5051 40.7958 53.7526 39.5004 55.7546C38.8259 56.7987 37.1772 58.5101 36.2243 59.1451C35.1858 59.8447 33.4836 60.5874 32.231 60.8888C30.5394 61.2978 30.5715 61.2763 31.3638 61.5561C31.7385 61.6961 32.8947 62.1481 33.9225 62.5571C39.8965 64.9574 41.2669 65.4633 43.558 66.0337C44.3502 66.2383 45.5172 66.475 46.1381 66.5612C48.9431 66.9809 52.4226 66.5719 55.795 65.4418C56.5016 65.205 57.1012 65.022 57.1226 65.0543C57.1868 65.1189 56.234 65.9261 55.6023 66.3459C54.1998 67.2931 52.7652 67.842 51.1593 68.0573L50.1422 68.1864L50.1636 68.8861C50.26 71.4047 51.1486 73.9449 52.6689 75.99C55.1313 79.3051 61.1802 82.9755 66.9508 84.6546C67.3041 84.7514 67.8072 84.9021 68.0749 84.9775C69.2633 85.3327 72.6357 86 73.2138 86C73.9525 86 74.3058 84.8806 74.0275 83.3952C73.7919 82.1467 73.5457 81.6193 72.7534 80.7582C71.2867 79.1329 70.2696 77.6583 69.456 75.9469C68.9314 74.8275 68.2462 72.9008 68.1284 72.1582C68.0856 71.9321 68.0107 71.5877 67.9678 71.4155C67.5931 70.1346 67.3897 65.8831 67.5182 62.3203C67.561 61.3624 67.4325 60.8135 67.1863 60.8135C67.1006 60.8135 66.758 60.9534 66.4047 61.1256C65.2057 61.7284 63.6854 62.1589 62.4007 62.2558L61.5977 62.3203L62.0795 62.0836C62.3471 61.9544 63.3856 61.4485 64.3813 60.9641C72.2931 57.1108 77.8817 51.7721 81.5431 44.5929C81.8108 44.0547 82.0142 43.5704 81.9714 43.5381C81.9393 43.5058 81.6288 43.5488 81.2862 43.6349C79.6803 44.044 78.3634 44.1624 76.2115 44.0978C74.1774 44.0332 73.096 43.904 73.4279 43.7749C73.5136 43.7426 74.263 43.6565 75.0874 43.5919C78.2243 43.3443 80.3655 42.9568 82.3568 42.2895C86.9818 40.7288 90.472 37.489 93.0629 32.3441C94.2512 29.9761 94.9364 27.8665 95.0221 26.3596C95.1077 24.9926 95.2576 25.0464 91.6068 25.1433C87.7526 25.2402 87.0996 25.1541 84.0805 24.2176C83.4916 24.0347 82.6244 23.7656 82.1534 23.6149C80.3119 23.0444 78.1921 22.8722 76.7468 23.1843C74.4664 23.6795 71.6721 25.1541 69.5202 27.0161C68.4603 27.931 67.6574 28.8029 65.1842 31.6982C60.4093 37.2737 58.4501 38.3824 52.6581 38.8021C51.609 38.8775 48.9538 38.7053 47.6263 38.4685C45.0247 38.0164 42.6373 37.263 40.5068 36.2189C37.2949 34.6474 36.1922 33.4958 35.5177 31.0524C35.325 30.3528 35.2929 30.0191 35.3464 29.1688C35.4321 27.6404 35.8389 26.7471 37.5626 24.3253C39.2434 21.9573 40.3248 20.7733 45.4208 15.6714L50.5705 10.5157L50.0887 10.365C49.35 10.139 47.1338 9.71923 46.2345 9.63312C44.7678 9.50396 42.9263 9.89144 41.3311 10.6772C40.3248 11.1615 38.6332 12.8945 36.7596 15.3378C34.8111 17.8779 34.2437 18.556 34.2437 18.3623C34.2437 18.2762 34.779 17.1353 35.4321 15.8114C36.8346 12.9698 37.3378 11.5705 37.4234 10.2359C37.5305 8.55677 37.0059 6.98531 36.0102 5.96278C35.3893 5.32773 34.3401 4.78956 33.5264 4.68192L32.9697 4.60658L32.0597 6.42561ZM81.329 27.8772C81.7251 28.1248 81.8857 28.4584 81.8857 29.072C81.8857 29.4056 81.8108 29.5778 81.5217 29.9007C81.1898 30.2559 81.0935 30.299 80.6331 30.299C79.9908 30.299 79.5732 30.0407 79.3484 29.524C79.1343 28.9859 79.252 28.4584 79.691 28.0171C79.98 27.7265 80.1299 27.6619 80.5154 27.6619C80.783 27.6619 81.1149 27.7481 81.329 27.8772Z" fill="#1E5C97"/>
<path d="M90.9865 6.51186C89.873 6.86706 89.2414 7.76043 89.2307 8.98746C89.2199 10.0638 89.6696 10.828 90.6117 11.3339C91.2648 11.6891 92.3889 11.6568 93.0527 11.2693C95.2475 9.96694 94.5409 6.69484 91.9928 6.41499C91.6716 6.3827 91.2755 6.41499 90.9865 6.51186Z" fill="#1E5C97"/>
<path d="M99.636 6.66223C98.4798 7.03895 97.9338 8.38439 98.5119 9.41768C99.2827 10.7846 101.178 10.7524 101.884 9.36386C102.013 9.10554 102.12 8.71805 102.12 8.51355C102.12 7.96461 101.724 7.23269 101.274 6.93132C100.835 6.65147 100.086 6.5223 99.636 6.66223Z" fill="#1E5C97"/>
<path d="M72.5829 8.19074C71.1162 8.47059 70.2597 10.2358 70.9449 11.5812C71.4267 12.5284 72.3153 12.9913 73.418 12.8836C75.2808 12.6899 76.1373 10.2789 74.8419 8.90113C74.2638 8.28762 73.4501 8.02929 72.5829 8.19074Z" fill="#1E5C97"/>
<path d="M100.674 15.413C99.7644 16.0265 99.3682 17.1459 99.7001 18.1577C100.417 20.3319 103.447 20.3319 104.25 18.1577C104.582 17.2858 104.143 16.0265 103.319 15.4453C102.923 15.1654 102.73 15.1224 102.034 15.0901C101.253 15.047 101.188 15.0685 100.674 15.413Z" fill="#1E5C97"/>
</svg>
