<svg width="64" height="98" viewBox="0 0 64 98" fill="none" xmlns="http://www.w3.org/2000/svg">
<path d="M34.175 1.18432C36.5516 2.42338 38.0344 2.76869 40.5734 2.6265C42.1781 2.56557 43.0922 2.38276 44.9609 1.77338C48.9422 0.473381 48.9422 0.49369 49.125 6.97338L49.2672 11.7265L50.4656 13.0468C51.9891 14.7124 53.0859 16.9671 53.675 19.6484C54.5484 23.6296 55.1578 24.6453 60.1547 30.6171C61.8406 32.6281 63.3641 34.5984 63.5672 34.9843C64.7047 37.3406 63.5063 40.3874 61.0688 41.4031C60.6828 41.5656 59.8703 41.6874 59.2203 41.6874C57.1281 41.6874 56.8234 41.4234 50.7703 34.7609C47.7438 31.4296 45.0422 28.6265 44.7578 28.5046C44.4734 28.4031 43.5188 28.2609 42.6453 28.1999C41.65 28.1187 40.5734 27.8953 39.8016 27.5703C39.1109 27.3062 38.5219 27.1031 38.4813 27.164C38.3188 27.3062 39.2938 29.2156 40.0656 30.2312C40.6141 30.9421 41.6094 31.7952 43.2953 32.9328C44.6359 33.8468 45.8344 34.7609 45.9359 34.964C46.0578 35.1671 46.2813 36.2843 46.4641 37.4421C46.9109 40.2859 47.4188 42.2968 48.4344 45.3843L49.2672 47.964L48.3328 50.7671C47.1953 54.139 46.3219 57.5515 45.8547 60.4562C45.5703 62.0812 45.3875 62.6906 45.0625 62.9749C44.8188 63.1781 43.2344 63.9296 41.5281 64.6406C39.8016 65.3515 37.5875 66.4078 36.5719 66.9765C31.6359 69.7999 30.3156 71.6078 30.3156 75.5281C30.3156 77.3765 30.7625 79.1031 31.5953 80.5453C32.3063 81.7437 34.1141 83.3687 35.475 84.039C36.9375 84.7499 39.5984 85.2171 41.3656 85.0546C43.9859 84.8312 46.85 83.5312 47.5 82.2718C48.5156 80.3218 47.0328 77.5999 45.9969 79.489C45.8141 79.8343 45.4688 80.4031 45.2453 80.7484C43.925 82.7796 40.4719 82.8406 38.9891 80.8499C38.1969 79.7937 37.9734 78.7984 38.075 76.7265C38.1359 75.1421 38.2375 74.6546 38.7859 73.5578C39.4563 72.1968 41.0406 70.4499 42.3 69.6781C46.9516 66.8343 54 69.3734 56.8641 74.8984C58.1031 77.3156 58.4281 78.5953 58.4281 81.1953C58.4484 83.8765 57.9813 85.6843 56.6609 87.8984C55.1578 90.4781 51.4813 93.6874 48.0891 95.3937C40.8984 98.989 31.9609 98.2374 25.5828 93.4437C23.4906 91.8796 17.4578 85.9281 15.9953 83.9781C12.6844 79.5499 10.6125 73.8421 10.2875 68.1546L10.1453 65.9609L8.37813 63.9296C7.40313 62.8124 6.52969 61.7156 6.40781 61.4921C6.28594 61.2687 6.14375 60.5171 6.08282 59.8468C5.81875 57.3078 4.55938 54.8703 2.40625 52.7781C1.69532 52.1078 1.06563 51.3765 0.984379 51.1531C0.90313 50.9296 1.08594 50.2796 1.47188 49.4874C2.71094 46.9484 2.75156 44.7343 1.55313 42.114C1.22813 41.3421 1.06563 40.7124 1.14688 40.4078C1.20782 40.1234 1.95938 39.3718 2.95469 38.5999C5.71719 36.4265 6.40781 35.0453 6.7125 30.9421C6.89532 28.7687 6.93594 28.5859 7.44375 28.139C7.74844 27.8749 8.175 27.6718 8.41875 27.6718C8.64219 27.6718 10.4297 28.5046 12.3594 29.5203C14.4516 30.5968 15.8938 31.2468 15.8938 31.0843C15.8531 29.764 15.0609 27.7937 12.3797 22.4515C10.7344 19.1812 9.39375 16.2765 9.39375 15.9718C9.39375 15.139 9.73907 14.7328 11.0594 14.0218C12.5219 13.2499 14.1469 11.8078 15.2234 10.3453C15.65 9.7765 16.4625 8.11088 17.0516 6.64838C18.4125 3.19526 18.4734 3.15463 21.0125 3.49995C24.5469 3.96713 27.5125 3.15463 30.4984 0.920258C31.0063 0.534317 31.6156 0.249947 31.9203 0.270256C32.2047 0.270256 33.2203 0.696815 34.175 1.18432ZM31.3719 4.29213C29.1172 5.8765 26.1109 6.77026 22.8203 6.83119L20.5047 6.87182L19.7531 8.69994C18.9406 10.6906 18.6766 11.1578 17.3563 12.9046C16.5438 13.9812 14.8781 15.5046 13.6594 16.3171L13.1516 16.6624L14.2688 18.9171C14.8781 20.1562 15.4266 21.1718 15.5078 21.1718C15.5891 21.1718 15.6906 20.9078 15.7516 20.5827C16.2797 18.0031 18.3516 14.4078 20.6469 12.1124C24.2219 8.51713 28.65 6.689 33.7688 6.689C36.9375 6.66869 37.8922 6.87182 42.2188 8.49682C44.1281 9.20776 45.7531 9.79682 45.8344 9.79682C45.9766 9.79682 45.9969 5.99838 45.8344 5.40932L45.7125 4.98276L44.3719 5.36869C43.5594 5.61244 42.0766 5.81557 40.675 5.8765C37.8922 5.99838 36.1453 5.6937 33.8094 4.65775C31.9203 3.80463 32.0219 3.82494 31.3719 4.29213ZM30.1734 10.3046C25.9688 11.2999 22.0078 14.4687 20.0781 18.389C18.8188 20.9687 18.4734 22.4109 18.4531 25.2343C18.4328 27.4281 18.5344 28.0374 20.1594 35.4718L21.8656 43.3734L18.575 49.8937C14.1063 58.7499 13.5578 60.5374 13.5578 66.3671C13.5781 70.0437 13.8219 71.7703 14.7969 74.7359C16.1781 78.9812 18.1891 82.0078 22.2719 86.0499C27.1875 90.9046 29.1375 92.2859 32.6516 93.464C36.5313 94.764 40.4719 94.7437 44.3922 93.4031C47.175 92.4484 49.3078 91.1078 51.6438 88.8124C53.7969 86.7203 54.4875 85.6234 54.9953 83.4906C55.5844 81.0124 55.2797 78.8999 53.9594 76.4015C53.0453 74.6749 51.6438 73.3343 49.8563 72.5015C48.6578 71.9328 48.2922 71.8515 46.7688 71.8515C45.2453 71.8515 44.9203 71.9124 44.1078 72.3999C42.2391 73.4968 41.3047 75.1421 41.2844 77.2343C41.2844 78.0062 41.3859 78.6765 41.5281 78.8187C42.0156 79.3062 42.4828 79.0828 43.0109 78.0671C44.6766 74.7765 49.0438 74.8578 50.5875 78.2093C51.2781 79.7328 51.2984 81.7437 50.6484 83.2265C50.0594 84.5671 48.7797 85.8671 47.2766 86.6187C46.6063 86.964 46.0375 87.2484 45.9969 87.289C45.9766 87.3093 46.1797 87.7359 46.4641 88.2234C46.7281 88.7109 46.9719 89.3203 46.9719 89.5843C46.9719 90.214 46.0984 91.0468 45.4484 91.0468C44.6156 91.0468 44.25 90.7421 43.4172 89.4624L42.625 88.264L40.8984 88.2843C39.9438 88.3046 38.7453 88.264 38.2578 88.2031L37.3438 88.1015L36.9781 89.4218C36.7547 90.1531 36.4094 90.9046 36.1656 91.1078C35.2516 91.8796 33.5656 91.2093 33.5656 90.0515C33.5656 89.7874 33.7078 89.0156 33.8906 88.3656C34.0734 87.7156 34.1953 87.1468 34.1547 87.1062C34.1141 87.0656 33.5453 86.6999 32.8953 86.2937L31.7172 85.5421L30.4781 86.5781C29.1172 87.7156 28.4672 87.8578 27.5938 87.1671C27.2078 86.8624 27.0656 86.5578 27.0656 86.0499C27.0656 85.2984 27.4516 84.7906 28.8328 83.7343L29.4828 83.2265L28.8125 82.1703C27.7359 80.464 27.2281 78.6562 27.1063 76.1374C27.0047 73.5984 27.2281 72.2374 28.1016 70.389C29.3 67.8499 32.0625 65.5546 36.8156 63.1781C38.0953 62.5281 39.2531 61.9999 39.3953 61.9999C40.1266 61.9999 39.2938 61.5328 35.5766 59.8671C33.3219 58.8515 31.3516 57.8562 31.2094 57.6328C30.5391 56.6781 31.2906 55.0937 32.4078 55.0937C32.6719 55.0937 35.0281 56.0484 37.6281 57.2265C40.2281 58.4046 42.4422 59.3593 42.5234 59.3593C42.625 59.3593 42.7469 59.1562 42.7875 58.9124C43.2547 56.7593 44.2297 52.8796 44.6359 51.5796C44.9203 50.7062 45.1438 49.914 45.1438 49.8124C45.1438 49.7109 42.7063 49.6703 39.2531 49.7515L33.3625 49.8734L32.8547 49.4062C32.55 49.1218 32.3469 48.6953 32.3469 48.3703C32.3469 46.8265 32.9563 46.5624 36.6531 46.5624C38.2578 46.5624 40.8375 46.5015 42.4219 46.4203L45.2859 46.2984L44.8188 44.8359C44.5547 44.0234 44.1078 42.2156 43.8031 40.814L43.2344 38.2546L42.5234 38.5593C34.6625 41.9109 33.6063 42.2968 33.0375 42.0937C31.9 41.6468 31.5547 40.2859 32.3875 39.514C32.6516 39.2906 34.5 38.3968 36.5109 37.564C38.5219 36.7312 40.4109 35.9187 40.7156 35.7968L41.2641 35.5328L40.1063 34.6796C36.6938 32.1609 34.9672 28.8499 34.9672 24.8484C34.9672 23.1624 35.0281 22.8984 35.4141 22.4718C36.1656 21.6593 37.0391 21.8218 38.5016 22.9999C40.3094 24.4624 41.2234 24.8281 43.4984 25.0109C46.6063 25.2546 46.4641 25.1328 54 33.4609C56.2141 35.9187 58.1641 38.0312 58.3469 38.1734C58.5094 38.3156 58.9359 38.4374 59.3016 38.4374C60.0328 38.4374 60.7844 37.6656 60.7844 36.914C60.7844 36.6093 59.5047 34.9031 57.1688 32.0999C55.1781 29.7234 53.2078 27.2046 52.8016 26.514C51.8469 24.9499 51.1359 23.0609 50.5063 20.3999C50.2422 19.2421 49.775 17.8406 49.4906 17.2718C48.8813 16.0734 47.6219 14.6515 46.4234 13.839C45.0422 12.8843 38.9078 10.5687 36.5109 10.0812C34.8656 9.7562 32.0828 9.85776 30.1734 10.3046ZM9.8 32.7906C9.8 35.4109 8.0125 38.8234 5.75782 40.5296L4.78281 41.2812L5.18906 42.439C5.79844 44.1453 5.77813 47.3953 5.16875 49.1624L4.70156 50.4421L5.83907 51.7015C7.40313 53.4078 8.68282 56.0484 9.17031 58.5265C9.45469 59.9484 9.67813 60.5578 10.0641 60.9234L10.5719 61.4312L10.9172 59.8468C11.1 58.9531 11.5875 57.3687 11.9734 56.3124C12.3594 55.2562 12.725 54.2203 12.7859 54.0171C12.8875 53.6921 12.7859 53.6718 11.5672 53.7937C10.3281 53.9156 10.2063 53.8953 9.71875 53.4078C9.08907 52.7781 9.02813 51.8843 9.55626 51.2343C9.96251 50.7468 11.1609 50.4624 12.9484 50.4218C14.4313 50.4015 14.7766 50.2593 15.1625 49.4874C15.3453 49.1015 15.4875 48.7562 15.4875 48.7156C15.4875 48.6749 14.3703 48.4312 12.9891 48.1671C10.9172 47.7609 10.4094 47.5984 9.94219 47.1515C9.25157 46.4609 9.23125 45.689 9.90157 45.039C10.5313 44.389 10.9375 44.389 14.3094 45.1203L17.0719 45.689L17.2953 45.2015C17.4172 44.9374 17.5188 44.6734 17.5188 44.6531C17.5188 44.6124 16.4219 43.9015 15.0609 43.089C12.4813 41.5249 11.8313 40.9359 11.8313 40.1234C11.8313 39.4734 12.6844 38.6406 13.3953 38.6406C13.7 38.6406 14.7766 39.1281 15.8531 39.7781C16.8891 40.4078 17.8031 40.8546 17.8641 40.7937C17.9859 40.6718 16.95 35.7562 16.7469 35.5531C16.5438 35.3703 10.1453 31.9578 9.94219 31.9374C9.86094 31.9374 9.8 32.3234 9.8 32.7906Z" fill="#1E5C97"/>
<path d="M47.0391 17.089C47.9531 17.4953 48.3594 18.1656 48.3594 19.3031C48.3594 20.1968 47.9531 20.8468 47.1406 21.2734C45.4547 22.1468 43.5047 20.7656 43.7484 18.8968C43.9719 17.2312 45.4953 16.3984 47.0391 17.089Z" fill="#1E5C97"/>
</svg>
