<svg width="58" height="61" viewBox="0 0 58 61" fill="none" xmlns="http://www.w3.org/2000/svg">
<path d="M15.9821 52.0625H49.0203L57.6389 60.6875V30.5C57.6389 27.3375 55.0533 24.75 51.8931 24.75H15.9821C12.8219 24.75 10.2363 27.3375 10.2363 30.5V46.3125C10.2363 49.475 12.8219 52.0625 15.9821 52.0625Z" fill="#78BDFF"/>
<path d="M35.8056 41.7125H30.6344L29.6289 44.7312H26.4688L31.7836 30.3562H34.5128L39.8277 44.7312H36.6675L35.8056 41.7125ZM31.3527 39.4125H34.9438L33.22 33.95L31.3527 39.4125Z" fill="#1E5C97"/>
<path d="M41.8384 30.5H8.80029L0.181641 39.125V6.0625C0.181641 2.9 2.76724 0.3125 5.92741 0.3125H41.8384C44.9986 0.3125 47.5842 2.9 47.5842 6.0625V24.75C47.5842 27.9125 44.9986 30.5 41.8384 30.5Z" fill="#1E5C97"/>
<path d="M30.92 14.975C30.92 16.4125 30.6327 17.5625 30.2018 18.5687C29.7708 19.575 29.1963 20.4375 28.3344 21.0125L30.7763 22.8812L28.909 24.6062L25.7488 22.1625C25.4615 22.1625 25.0306 22.3062 24.5996 22.3062C23.7378 22.3062 22.8759 22.1625 22.014 21.875C21.2958 21.5875 20.5776 21.0125 20.003 20.4375C19.4284 19.8625 18.9975 19 18.7102 18.1375C18.4229 17.275 18.2793 16.2687 18.2793 15.1187V14.5437C18.2793 13.3937 18.4229 12.3875 18.7102 11.525C18.9975 10.6625 19.4284 9.79995 20.003 9.22495C20.5776 8.64995 21.1522 8.07495 22.014 7.78745C22.7323 7.49995 23.5941 7.3562 24.5996 7.3562C25.4615 7.3562 26.3234 7.49995 27.1852 7.78745C27.9035 8.07495 28.6217 8.64995 29.1963 9.22495C29.7708 9.79995 30.2018 10.6625 30.4891 11.525C30.7763 12.3875 30.92 13.3937 30.92 14.5437V14.975ZM27.7598 14.2562C27.7598 12.675 27.4725 11.525 26.8979 10.8062C26.3234 9.9437 25.6051 9.6562 24.5996 9.6562C23.5941 9.6562 22.7323 10.0875 22.3013 10.8062C21.7268 11.6687 21.4395 12.8187 21.4395 14.2562V14.975C21.4395 15.6937 21.5831 16.4125 21.7268 16.9875C21.8704 17.5625 22.014 18.1375 22.3013 18.425C22.5886 18.8562 22.8759 19.1437 23.3068 19.2875C23.7378 19.4312 24.1687 19.575 24.5996 19.575C25.6051 19.575 26.467 19.1437 26.8979 18.425C27.4725 17.5625 27.7598 16.4125 27.7598 14.8312V14.2562Z" fill="white"/>
</svg>
