<svg width="93" height="92" viewBox="0 0 93 92" fill="none" xmlns="http://www.w3.org/2000/svg">
<path d="M40.1651 31.7181C42.9094 26.7949 44.2818 24.3333 46.3332 24.3333C48.3846 24.3333 49.7569 26.7949 52.5012 31.7181L53.2115 32.9918C53.991 34.3909 54.381 35.0903 54.989 35.5519C55.597 36.0134 56.3544 36.1848 57.8689 36.5274L59.2474 36.8394C64.5769 38.0453 67.2415 38.648 67.8755 40.6869C68.5094 42.7253 66.6929 44.8495 63.0598 49.0983L62.1195 50.1972C61.0873 51.4045 60.5712 52.0081 60.3389 52.7552C60.1067 53.5018 60.1847 54.3074 60.3407 55.9181L60.4828 57.3845C61.0323 63.0529 61.3066 65.8874 59.6469 67.1471C57.9872 68.4072 55.4925 67.2584 50.5027 64.9609L49.2118 64.3664C47.7935 63.7138 47.0846 63.387 46.3332 63.387C45.5818 63.387 44.8728 63.7138 43.4545 64.3664L42.1636 64.9609C37.174 67.2584 34.6791 68.4072 33.0193 67.1471C31.3596 65.8874 31.6343 63.0529 32.1835 57.3845L32.3256 55.9181C32.4817 54.3074 32.5598 53.5018 32.3275 52.7552C32.0953 52.0081 31.5791 51.4045 30.5467 50.1972L29.6067 49.0983C25.9735 44.8495 24.157 42.7253 24.7909 40.6869C25.4249 38.648 28.0895 38.0453 33.4188 36.8394L34.7976 36.5274C36.312 36.1848 37.0692 36.0134 37.6773 35.5519C38.2853 35.0903 38.6753 34.3909 39.4549 32.9918L40.1651 31.7181Z" stroke="#1E5C97" stroke-width="5"/>
<path opacity="0.5" d="M46.3335 2.66666V11.3333" stroke="#1E5C97" stroke-width="5" stroke-linecap="round"/>
<path opacity="0.5" d="M46.3335 80.6666V89.3333" stroke="#1E5C97" stroke-width="5" stroke-linecap="round"/>
<path opacity="0.5" d="M3 46H11.6667" stroke="#1E5C97" stroke-width="5" stroke-linecap="round"/>
<path opacity="0.5" d="M81 46H89.6667" stroke="#1E5C97" stroke-width="5" stroke-linecap="round"/>
<path d="M20.3335 72L21.82 70.5137" stroke="#1E5C97" stroke-width="5" stroke-linecap="round"/>
<path d="M70.8457 21.4875L72.3333 20" stroke="#1E5C97" stroke-width="5" stroke-linecap="round"/>
<path d="M72.3335 72L70.8472 70.5137" stroke="#1E5C97" stroke-width="5" stroke-linecap="round"/>
<path d="M21.821 21.4875L20.3335 20" stroke="#1E5C97" stroke-width="5" stroke-linecap="round"/>
</svg>
