<svg width="94" height="104" viewBox="0 0 94 104" fill="none" xmlns="http://www.w3.org/2000/svg">
<path d="M16.5923 0.385948C12.1844 1.58438 8.95476 4.91564 7.77663 9.50626C7.0657 12.3297 7.45163 15.4578 8.8532 18.1391C9.70632 19.7844 12.1844 22.2625 13.8298 23.1156C16.5313 24.5375 19.6391 24.9031 22.5032 24.1719C24.8188 23.5828 26.3626 22.6891 28.1298 20.9219C31.8876 17.1438 32.7813 11.8625 30.486 7.00782C29.1048 4.10314 26.4844 1.74689 23.4376 0.670322C21.3657 -0.0406151 18.6438 -0.162489 16.5923 0.385948ZM21.3657 6.39845C22.7469 6.8047 24.4329 8.36876 25.0829 9.79064C25.4485 10.6031 25.5501 11.2328 25.5501 12.3906C25.5704 14.1172 25.1438 15.275 24.0673 16.5141C22.4016 18.3828 19.2532 18.9719 16.8969 17.8141C12.936 15.8641 12.3469 10.6844 15.7391 7.63751C17.3438 6.19532 19.2329 5.76876 21.3657 6.39845Z" fill="#1E5C97"/>
<path d="M71.4359 0.385948C69.7094 0.853136 69.0391 1.17813 67.3734 2.37657C64.2859 4.55001 62.2547 8.57189 62.2344 12.5125C62.2344 14.1172 62.8641 16.5547 63.6969 18.1391C64.55 19.7844 67.0281 22.2625 68.6734 23.1156C71.375 24.5375 74.4828 24.9031 77.3469 24.1719C79.6422 23.5828 81.2063 22.6891 82.9531 20.9219C84.7203 19.175 85.6141 17.611 86.2031 15.3156C87.7672 9.2422 84.2531 2.78282 78.2812 0.670322C76.2094 -0.0406151 73.4875 -0.162489 71.4359 0.385948ZM76.2094 6.39845C77.5906 6.8047 79.2766 8.36876 79.9266 9.79064C80.5766 11.2328 80.5969 13.5078 79.9875 14.8485C79.3578 16.1891 78.4031 17.1641 77.1031 17.8141C76.1484 18.2813 75.6813 18.3828 74.4219 18.3828C70.8875 18.3828 68.4297 15.925 68.45 12.3906C68.45 10.3594 69.0188 9.0797 70.5016 7.71876C72.1672 6.19532 74.0359 5.76876 76.2094 6.39845Z" fill="#1E5C97"/>
<path d="M22.4421 25.1875C10.6203 26.6703 1.86556 36.461 0.910875 49.2578C0.38275 56.286 2.37338 62.786 7.14681 69.6719C11.2093 75.5016 17.364 81.6156 28.7187 91.1016C31.1156 93.1125 35.1374 96.4844 37.6562 98.5969C42.4093 102.598 43.6281 103.391 45.7609 103.797C47.2843 104.081 48.5437 104.061 49.9453 103.695C52.5249 103.025 52.3421 103.167 61.9906 94.7172C76.6562 81.9 83.6234 74.8313 87.7265 68.6563C91.464 62.9891 93.1499 57.6875 93.1499 51.4922C93.1499 42.3922 89.4734 34.775 82.5671 29.4938C80.9421 28.2344 77.2859 26.5078 75.0515 25.8985C64.6515 23.1563 54.8812 27.0766 48.6249 36.5219C47.8531 37.6797 47.1828 38.736 47.1218 38.8578C47.0202 39.0406 46.9796 39.0406 46.8781 38.8578C46.8171 38.736 46.1468 37.6797 45.3749 36.5219C41.5359 30.7125 36.2953 26.8938 30.3843 25.5938C28.2921 25.1266 24.5343 24.9438 22.4421 25.1875ZM29.6328 31.6875C33.9187 32.7844 37.5953 35.6891 40.6218 40.3203C41.1906 41.2141 41.8609 42.3313 42.1046 42.7985L42.5312 43.6516L41.2515 44.3219C39.3828 45.2969 37.0874 47.6531 36.1531 49.5625C34.8124 52.3047 34.4874 55.1688 35.2187 57.9719C35.8078 60.2672 36.7015 61.8313 38.4687 63.5781C40.1953 65.325 41.7796 66.2594 43.9734 66.8078C45.1109 67.0922 45.314 67.1938 44.9484 67.2953C44.6843 67.3766 44.1968 67.4375 43.8921 67.4375C42.1249 67.4375 37.3921 68.8188 34.9953 70.0375L33.4312 70.8297L30.2218 67.8438C25.2046 63.2328 21.9953 59.4344 20.4109 56.2656C19.7203 54.8641 19.4968 54.1328 19.0499 51.8375C18.9687 51.3906 18.9078 51.3906 15.9421 51.3906H12.9359L13.0171 52.4469C13.464 57.8703 16.7953 63.2735 24.0874 70.4031C25.7937 72.0688 28.2109 74.3235 29.4499 75.4C30.689 76.4969 31.8265 77.6344 31.989 77.9188C32.1515 78.2235 32.2734 78.9141 32.2734 79.4422C32.2734 81.7172 29.8359 83.0578 27.6828 81.961C25.9562 81.0672 16.7953 72.1094 13.8703 68.4531C8.48744 61.7297 6.43588 56.0219 7.00463 49.3594C7.95931 38.4516 16.064 30.7328 26.0984 31.1797C27.1546 31.2406 28.7593 31.4641 29.6328 31.6875ZM72.9999 31.6875C81.9984 33.861 87.9703 43.2047 86.9953 53.6047C86.2843 61.2219 82.0796 67.7625 71.2124 78.2031C66.764 82.4688 65.3624 83.261 63.6968 82.3875C62.2952 81.6563 61.6249 79.8688 62.2343 78.4266C62.3562 78.1016 64.1234 76.2938 66.1546 74.4047C69.7906 71.0125 73.1218 67.5594 75.1937 65.0406C78.6468 60.836 80.6984 56.4078 80.9827 52.5485L81.064 51.3703L77.9968 51.4313L74.9296 51.4922L74.8078 52.6094C74.5031 55.4531 72.9593 58.2969 69.5468 62.2375C67.739 64.3094 61.2187 70.8906 60.9343 70.8906C60.8734 70.8906 59.9593 70.4844 58.9234 69.9969C56.2015 68.6969 51.8749 67.4375 50.1077 67.4375C49.8031 67.4375 49.3156 67.3766 49.0515 67.2953C48.6859 67.1938 48.889 67.0922 50.0265 66.8078C52.2202 66.2594 53.8046 65.325 55.5312 63.5781C57.2984 61.8313 58.1921 60.2672 58.7812 57.9719C59.5124 55.1688 59.1874 52.3047 57.8468 49.5625C56.9124 47.6531 54.6171 45.2969 52.7484 44.3219L51.4687 43.6516L51.9562 42.6969C53.0124 40.6453 55.0437 37.8219 56.6281 36.2578C59.3906 33.5359 62.6406 31.8297 66.0937 31.3016C67.9015 31.0172 70.9281 31.2 72.9999 31.6875ZM49.7218 49.6438C51.8546 50.6797 52.9718 52.5688 52.9921 55.0469C52.9921 56.3063 52.8906 56.7735 52.4234 57.7281C51.0624 60.511 47.8124 61.811 44.9077 60.7344C41.2718 59.3735 39.8296 55.0266 41.9218 51.736C43.5468 49.1766 46.9187 48.2828 49.7218 49.6438ZM51.4687 73.8156C52.7281 74.0797 55.9781 75.1969 56.4859 75.5219C56.6687 75.6235 56.6281 75.9485 56.3437 76.7813C55.8156 78.325 55.8156 80.8031 56.3437 82.5297C56.8515 84.1953 58.2531 86.1047 59.5937 86.9781C60.1421 87.3438 60.589 87.7094 60.5484 87.7906C60.4265 88.1766 49.8437 97.1953 49.1328 97.5203C48.1577 97.9672 47.2234 98.0078 46.289 97.6219C45.6999 97.3781 41.7187 94.1078 35.1781 88.5422L33.8171 87.3641L34.8937 86.5516C36.1937 85.5766 37.5343 83.6672 38.0015 82.0828C38.4687 80.5797 38.4484 77.8375 37.9812 76.5172C37.7781 75.9688 37.6765 75.4813 37.7171 75.4406C38.0218 75.1156 42.1046 73.8563 43.5468 73.6328C45.5984 73.2875 49.4984 73.3891 51.4687 73.8156Z" fill="#1E5C97"/>
</svg>
