<svg width="105" height="84" viewBox="0 0 105 84" fill="none" xmlns="http://www.w3.org/2000/svg">
<path d="M44.6578 10.5984L36.2742 18.982C33.7641 19.6711 31.4344 20.9344 29.4656 22.6734L25.1016 26.5617C23.4281 28.0547 21.2461 28.875 18.9984 28.875H15.75V49.875C19.0969 49.9734 22.2797 51.3351 24.6586 53.7141L30.4992 59.5547L31.6477 60.7031L36.0773 65.1328C37.0945 66.15 38.768 66.15 39.7852 65.1328C40.0641 64.8539 40.2773 64.5258 40.3922 64.1812C40.8516 62.918 41.918 61.9664 43.2305 61.6711C44.543 61.3758 45.9211 61.7695 46.8727 62.7375L48.6445 64.4766C50.5477 66.3797 53.632 66.3797 55.5187 64.4766C56.4047 63.5906 56.8805 62.4586 56.9297 61.2937C56.9953 59.85 57.8484 58.5703 59.1609 57.9469C60.4734 57.3234 61.9992 57.4547 63.1641 58.2914C64.7062 59.3906 66.8555 59.243 68.2336 57.8648C69.7758 56.3227 69.7758 53.8289 68.2336 52.3031L55.7977 39.8672L49.9242 45.2812C45.4453 49.4156 38.5711 49.4812 34.0102 45.4289C28.8094 40.8023 28.6945 32.7305 33.7477 27.9562L45.2484 17.0953C49.7437 12.8625 55.6828 10.5 61.868 10.5C67.7906 10.5 73.5164 12.682 77.9297 16.6031L82.868 21H89.25H95.8125H102.375C103.819 21 105 22.1812 105 23.625V57.75C105 60.6539 102.654 63 99.75 63H94.5C92.5641 63 90.8578 61.95 89.9555 60.375H76.0266C75.4687 61.4742 74.7305 62.5242 73.8117 63.443C71.0062 66.2484 67.118 67.3476 63.4758 66.7406C62.8852 67.9383 62.0812 69.0539 61.0805 70.0547C56.6016 74.5336 49.5961 74.9766 44.6086 71.3836C40.4906 74.7961 34.3547 74.5828 30.4992 70.7109L26.0859 66.2812L24.9375 65.1328L19.0969 59.2922C18.1945 58.3898 17.0133 57.8648 15.75 57.7664C15.75 60.6539 13.3875 63 10.5 63H5.25C2.34609 63 0 60.6539 0 57.75V23.625C0 22.1812 1.18125 21 2.625 21H9.1875H15.75H18.9984C19.3266 21 19.6383 20.8852 19.868 20.6719L24.2156 16.8C28.793 12.7477 34.6828 10.5 40.8023 10.5H42.4922C43.2141 10.5 43.9523 10.5328 44.6578 10.5984ZM89.25 52.5V28.875H81.375C80.407 28.875 79.4719 28.5141 78.7664 27.8742L72.7125 22.493C69.7266 19.8352 65.8711 18.375 61.868 18.375C57.7008 18.375 53.6977 19.9664 50.6625 22.8211L39.1617 33.682C37.4719 35.2898 37.5047 37.9969 39.2437 39.5391C40.7695 40.9008 43.0828 40.868 44.5758 39.4898L56.3719 28.5961C57.9633 27.1195 60.457 27.218 61.9336 28.8258C63.4102 30.4336 63.3117 32.9109 61.7039 34.3875L61.5727 34.5187L73.7789 46.725C75.4195 48.3656 76.4859 50.3836 76.9617 52.4836H89.2336L89.25 52.5ZM10.5 55.125C10.5 54.4288 10.2234 53.7611 9.73116 53.2688C9.23887 52.7766 8.57119 52.5 7.875 52.5C7.17881 52.5 6.51113 52.7766 6.01884 53.2688C5.52656 53.7611 5.25 54.4288 5.25 55.125C5.25 55.8212 5.52656 56.4889 6.01884 56.9812C6.51113 57.4734 7.17881 57.75 7.875 57.75C8.57119 57.75 9.23887 57.4734 9.73116 56.9812C10.2234 56.4889 10.5 55.8212 10.5 55.125ZM97.125 57.75C97.8212 57.75 98.4889 57.4734 98.9812 56.9812C99.4734 56.4889 99.75 55.8212 99.75 55.125C99.75 54.4288 99.4734 53.7611 98.9812 53.2688C98.4889 52.7766 97.8212 52.5 97.125 52.5C96.4288 52.5 95.7611 52.7766 95.2688 53.2688C94.7766 53.7611 94.5 54.4288 94.5 55.125C94.5 55.8212 94.7766 56.4889 95.2688 56.9812C95.7611 57.4734 96.4288 57.75 97.125 57.75Z" fill="#1E5C97"/>
</svg>
