<svg width="83" height="84" viewBox="0 0 83 84" fill="none" xmlns="http://www.w3.org/2000/svg">
<path d="M6.77668 80.5652H76.1099M41.4432 80.5652V19.8986M41.4432 19.8986C46.2298 19.8986 50.1099 16.0184 50.1099 11.2319M41.4432 19.8986C36.657 19.8986 32.7767 16.0184 32.7767 11.2319M50.1099 11.2319C50.1099 6.44541 46.2298 2.56522 41.4432 2.56522C36.657 2.56522 32.7767 6.44541 32.7767 11.2319M50.1099 11.2319H76.1099M32.7767 11.2319H6.77668M15.4433 63.2319C21.9977 63.2319 27.4191 59.585 28.3138 53.4875C28.3705 53.101 28.3989 52.9077 28.3767 52.4792C28.3614 52.1832 28.2611 51.6428 28.1693 51.3607C28.0364 50.953 27.8752 50.6665 27.5529 50.0932L15.4433 28.5652L3.33371 50.0932C3.03493 50.6245 2.88556 50.8901 2.74737 51.3516C2.66235 51.6354 2.56394 52.3167 2.5652 52.6126C2.56719 53.0945 2.59631 53.2215 2.65464 53.4758C3.75946 58.2919 9.06498 63.2319 15.4433 63.2319ZM67.4432 63.2319C73.9978 63.2319 79.4192 59.585 80.3136 53.4875C80.3704 53.101 80.399 52.9077 80.3765 52.4792C80.3613 52.1832 80.2612 51.6428 80.1693 51.3607C80.0363 50.953 79.8751 50.6665 79.5527 50.0932L67.4432 28.5652L55.3337 50.0932C55.0351 50.6245 54.8856 50.8901 54.7474 51.3516C54.6625 51.6354 54.5641 52.3167 54.565 52.6126C54.5671 53.0945 54.5962 53.2215 54.6547 53.4758C55.7597 58.2919 61.065 63.2319 67.4432 63.2319Z" stroke="#1E5C97" stroke-width="5" stroke-linecap="round" stroke-linejoin="round"/>
</svg>
