<svg width="59" height="42" viewBox="0 0 59 42" fill="none" xmlns="http://www.w3.org/2000/svg">
<path d="M56.5831 7.60479C56.2807 6.40757 55.6649 5.31063 54.7979 4.42476C53.9309 3.5389 52.8434 2.89549 51.6451 2.55951C47.2672 1.5 29.7554 1.5 29.7554 1.5C29.7554 1.5 12.2436 1.5 7.8656 2.66041C6.66738 2.99639 5.57984 3.6398 4.71283 4.52567C3.84581 5.41153 3.23003 6.50847 2.92767 7.70569C2.12644 12.1091 1.73452 16.5761 1.75683 21.0505C1.72827 25.5585 2.12022 30.0596 2.92767 34.4961C3.26101 35.6562 3.89059 36.7114 4.75558 37.5598C5.62058 38.4083 6.69175 39.0213 7.8656 39.3396C12.2436 40.5 29.7554 40.5 29.7554 40.5C29.7554 40.5 47.2672 40.5 51.6451 39.3396C52.8434 39.0036 53.9309 38.3602 54.7979 37.4743C55.6649 36.5885 56.2807 35.4915 56.5831 34.2943C57.3781 29.9241 57.77 25.4911 57.7539 21.0505C57.7825 16.5424 57.3905 12.0413 56.5831 7.60479Z" stroke="white" stroke-width="2.5" stroke-linecap="round" stroke-linejoin="round"/>
<path d="M24.0284 29.2995L38.664 21.0505L24.0284 12.8014V29.2995Z" stroke="white" stroke-width="2.5" stroke-linecap="round" stroke-linejoin="round"/>
</svg>
