<svg width="43" height="42" viewBox="0 0 43 42" fill="none" xmlns="http://www.w3.org/2000/svg">
<path fill-rule="evenodd" clip-rule="evenodd" d="M29.6125 1.5H12.8982C6.7442 1.5 1.75537 6.48882 1.75537 12.6429V29.3571C1.75537 35.5111 6.7442 40.5 12.8982 40.5H29.6125C35.7664 40.5 40.7554 35.5111 40.7554 29.3571V12.6429C40.7554 6.48882 35.7664 1.5 29.6125 1.5Z" stroke="white" stroke-width="3" stroke-linecap="round" stroke-linejoin="round"/>
<path fill-rule="evenodd" clip-rule="evenodd" d="M21.2551 29.3571C16.6394 29.3571 12.8979 25.6156 12.8979 21C12.8979 16.3843 16.6394 12.6428 21.2551 12.6428C25.8707 12.6428 29.6122 16.3843 29.6122 21C29.6122 23.2163 28.7317 25.3421 27.1644 26.9093C25.5972 28.4765 23.4714 29.3571 21.2551 29.3571Z" stroke="white" stroke-width="3" stroke-linecap="round" stroke-linejoin="round"/>
<path d="M32.3985 7.07139C30.86 7.07139 29.6128 8.3186 29.6128 9.85711C29.6128 11.3956 30.86 12.6428 32.3985 12.6428C33.937 12.6428 35.1842 11.3956 35.1842 9.85711C35.1842 8.3186 33.937 7.07139 32.3985 7.07139Z" fill="white"/>
<path d="M32.3982 8.46429C31.629 8.46429 31.0054 9.08789 31.0054 9.85714C31.0054 10.6264 31.629 11.25 32.3982 11.25C33.1675 11.25 33.7911 10.6264 33.7911 9.85714C33.7911 9.08789 33.1675 8.46429 32.3982 8.46429Z" stroke="white" stroke-linecap="round"/>
</svg>
